<svg width="228" height="124" viewBox="0 0 228 124" fill="none" xmlns="http://www.w3.org/2000/svg">
<g clip-path="url(#clip0_252_67)">
<path d="M208 0H20C8.9543 0 0 8.9543 0 20V104C0 115.046 8.9543 124 20 124H208C219.046 124 228 115.046 228 104V20C228 8.9543 219.046 0 208 0Z" fill="#004AAD"/>
<rect x="21" y="15" width="186" height="94" rx="16" fill="white"/>
<path d="M84.536 47.904C88.9733 47.904 92.4933 49.248 95.096 51.936C97.7413 54.624 99.064 58.3573 99.064 63.136V84H88.184V64.608C88.184 62.304 87.5653 60.5333 86.328 59.296C85.1333 58.016 83.4693 57.376 81.336 57.376C79.2027 57.376 77.5173 58.016 76.28 59.296C75.0853 60.5333 74.488 62.304 74.488 64.608V84H63.608V64.608C63.608 62.304 62.9893 60.5333 61.752 59.296C60.5573 58.016 58.8933 57.376 56.76 57.376C54.6267 57.376 52.9413 58.016 51.704 59.296C50.5093 60.5333 49.912 62.304 49.912 64.608V84H38.968V48.288H49.912V52.768C51.0213 51.2747 52.472 50.1013 54.264 49.248C56.056 48.352 58.0827 47.904 60.344 47.904C63.032 47.904 65.4213 48.48 67.512 49.632C69.6453 50.784 71.3093 52.4267 72.504 54.56C73.7413 52.5973 75.4267 50.9973 77.56 49.76C79.6933 48.5227 82.0187 47.904 84.536 47.904ZM134.686 76.064H117.918L115.23 84H103.774L120.03 39.072H132.702L148.958 84H137.374L134.686 76.064ZM131.87 67.616L126.302 51.168L120.798 67.616H131.87ZM171.826 57.376H165.938V84H154.994V57.376H151.026V48.288H154.994V47.264C154.994 42.8693 156.252 39.5413 158.77 37.28C161.287 34.976 164.978 33.824 169.842 33.824C170.652 33.824 171.25 33.8453 171.634 33.888V43.168C169.543 43.04 168.071 43.3387 167.218 44.064C166.364 44.7893 165.938 46.0907 165.938 47.968V48.288H171.826V57.376ZM182.472 44.576C180.552 44.576 178.973 44.0213 177.736 42.912C176.541 41.76 175.944 40.352 175.944 38.688C175.944 36.9813 176.541 35.5733 177.736 34.464C178.973 33.312 180.552 32.736 182.472 32.736C184.349 32.736 185.885 33.312 187.08 34.464C188.317 35.5733 188.936 36.9813 188.936 38.688C188.936 40.352 188.317 41.76 187.08 42.912C185.885 44.0213 184.349 44.576 182.472 44.576ZM187.912 48.288V84H176.968V48.288H187.912Z" fill="#004AAD"/>
</g>
<defs>
<clipPath id="clip0_252_67">
<rect width="228" height="124" fill="white"/>
</clipPath>
</defs>
</svg>
